<svg width="125" height="34" viewBox="0 0 125 34" fill="none" xmlns="http://www.w3.org/2000/svg">
<g filter="url(#filter0_i_0_849)">
<path fill-rule="evenodd" clip-rule="evenodd" d="M0.5 16.9774C0.5 26.1408 7.96776 33.5869 17.1722 33.5869C18.3184 33.5869 19.4531 33.4716 20.5761 33.2526L19.0478 26.4521C17.7279 26.7172 16.3849 26.6941 15.0766 26.406C9.85496 25.2418 6.55525 20.101 7.72462 14.9026C8.89399 9.70418 14.0577 6.43068 19.2794 7.58332L20.715 0.759687C19.5457 0.517632 18.3647 0.390841 17.1722 0.390841C14.9377 0.379315 12.7263 0.828845 10.677 1.69333C4.50596 4.28677 0.5 10.3151 0.5 16.9774ZM26.8352 30.5004V33.5779V33.5895H33.8282V15.9195H33.7935C33.6777 14.0637 33.2493 12.2425 32.5199 10.5251C31.6747 8.55409 30.4706 6.75597 28.9424 5.24601C27.4256 3.72452 25.6195 2.51425 23.6397 1.68435C23.026 1.43077 22.4124 1.21177 21.7756 1.02734L20.3168 7.87403C24.207 9.22262 26.8236 12.8765 26.8236 16.9799C26.8352 21.164 24.1144 24.8755 20.1084 26.1549L21.764 32.9324C22.4008 32.748 23.026 32.529 23.6397 32.2754C24.7743 31.8029 25.8395 31.2035 26.8352 30.5004Z" fill="url(#paint0_linear_0_849)"/>
</g>
<path d="M49.2748 14.2595H46.8773C46.7851 13.7472 46.6135 13.2964 46.3625 12.9071C46.1115 12.5178 45.8041 12.1874 45.4404 11.9159C45.0767 11.6444 44.6694 11.4395 44.2186 11.3011C43.773 11.1628 43.2991 11.0937 42.7971 11.0937C41.8904 11.0937 41.0784 11.3216 40.3612 11.7776C39.6492 12.2335 39.0857 12.902 38.6707 13.7831C38.2609 14.6642 38.056 15.74 38.056 17.0104C38.056 18.2911 38.2609 19.372 38.6707 20.2531C39.0857 21.1342 39.6517 21.8002 40.3689 22.251C41.0861 22.7018 41.8929 22.9271 42.7894 22.9271C43.2863 22.9271 43.7576 22.8606 44.2033 22.7274C44.6541 22.5891 45.0613 22.3867 45.425 22.1203C45.7887 21.8539 46.0961 21.5286 46.3471 21.1444C46.6033 20.7551 46.78 20.3094 46.8773 19.8074L49.2748 19.8151C49.1467 20.5886 48.8982 21.3007 48.5294 21.9513C48.1657 22.5967 47.697 23.1551 47.1232 23.6264C46.5546 24.0926 45.904 24.4537 45.1715 24.7099C44.4389 24.966 43.6398 25.0941 42.774 25.0941C41.4114 25.0941 40.1973 24.7713 39.1318 24.1259C38.0662 23.4753 37.2261 22.5455 36.6114 21.3365C36.0018 20.1276 35.697 18.6855 35.697 17.0104C35.697 15.3302 36.0044 13.8881 36.6191 12.6843C37.2338 11.4753 38.0739 10.5481 39.1395 9.90263C40.205 9.25205 41.4165 8.92676 42.774 8.92676C43.609 8.92676 44.3877 9.04714 45.11 9.28791C45.8374 9.52355 46.4906 9.8719 47.0694 10.3329C47.6483 10.7889 48.1273 11.3472 48.5063 12.0081C48.8854 12.6638 49.1416 13.4143 49.2748 14.2595ZM51.9315 24.8789V13.0762H54.1522V14.9511H54.2752C54.4903 14.3159 54.8694 13.8164 55.4124 13.4527C55.9605 13.0838 56.5804 12.8994 57.272 12.8994C57.4154 12.8994 57.5844 12.9045 57.7791 12.9148C57.9789 12.925 58.1351 12.9378 58.2478 12.9532V15.1509C58.1556 15.1252 57.9917 15.0971 57.7561 15.0663C57.5204 15.0305 57.2848 15.0125 57.0491 15.0125C56.5061 15.0125 56.022 15.1278 55.5968 15.3583C55.1768 15.5837 54.8438 15.8988 54.5979 16.3035C54.352 16.703 54.2291 17.159 54.2291 17.6712V24.8789H51.9315ZM63.5652 25.1402C62.8173 25.1402 62.1411 25.0019 61.5366 24.7252C60.9321 24.4435 60.4532 24.0362 60.0997 23.5035C59.7514 22.9707 59.5772 22.3175 59.5772 21.544C59.5772 20.8781 59.7053 20.3299 59.9614 19.8996C60.2175 19.4693 60.5633 19.1287 60.9987 18.8776C61.4342 18.6266 61.9208 18.4371 62.4587 18.309C62.9966 18.181 63.5447 18.0836 64.1031 18.017C64.81 17.9351 65.3838 17.8685 65.8243 17.8172C66.2649 17.7609 66.5851 17.6712 66.7849 17.5483C66.9846 17.4253 67.0845 17.2256 67.0845 16.9489V16.8951C67.0845 16.2241 66.895 15.7041 66.5159 15.3353C66.142 14.9664 65.5836 14.782 64.8408 14.782C64.0673 14.782 63.4576 14.9536 63.012 15.2969C62.5714 15.635 62.2666 16.0115 62.0976 16.4264L59.9383 15.9346C60.1945 15.2175 60.5684 14.6386 61.0602 14.198C61.5571 13.7524 62.1283 13.4296 62.7738 13.2298C63.4192 13.0249 64.098 12.9225 64.81 12.9225C65.2813 12.9225 65.7808 12.9788 66.3084 13.0915C66.8412 13.1991 67.3381 13.3989 67.7992 13.6909C68.2653 13.9829 68.647 14.4004 68.9441 14.9434C69.2412 15.4813 69.3898 16.1805 69.3898 17.0411V24.8789H67.146V23.2652H67.0538C66.9052 23.5624 66.6824 23.8544 66.3853 24.1412C66.0882 24.4281 65.7065 24.6663 65.2404 24.8559C64.7742 25.0454 64.2158 25.1402 63.5652 25.1402ZM64.0647 23.296C64.6999 23.296 65.2429 23.1705 65.6937 22.9195C66.1496 22.6685 66.4954 22.3406 66.7311 21.9359C66.9718 21.5261 67.0922 21.0881 67.0922 20.6219V19.1005C67.0103 19.1824 66.8515 19.2593 66.6158 19.331C66.3853 19.3976 66.1215 19.4565 65.8243 19.5077C65.5272 19.5538 65.2378 19.5974 64.956 19.6384C64.6743 19.6742 64.4386 19.705 64.2491 19.7306C63.8034 19.7869 63.3962 19.8817 63.0273 20.0149C62.6636 20.1481 62.3716 20.3402 62.1514 20.5912C61.9362 20.8371 61.8286 21.1649 61.8286 21.5748C61.8286 22.1434 62.0387 22.5737 62.4587 22.8657C62.8788 23.1525 63.4141 23.296 64.0647 23.296ZM78.067 13.0762V14.9203H71.3972V13.0762H78.067ZM73.226 24.8789V11.7084C73.226 10.9707 73.3874 10.3586 73.7101 9.8719C74.0329 9.38012 74.4606 9.01384 74.9934 8.77307C75.5261 8.52718 76.105 8.40424 76.73 8.40424C77.191 8.40424 77.5855 8.44266 77.9133 8.5195C78.2412 8.59122 78.4845 8.65781 78.6433 8.71929L78.1054 10.5788C77.9978 10.5481 77.8595 10.5122 77.6905 10.4713C77.5214 10.4252 77.3165 10.4021 77.0758 10.4021C76.5174 10.4021 76.1178 10.5404 75.877 10.817C75.6414 11.0937 75.5236 11.4932 75.5236 12.0158V24.8789H73.226ZM85.947 13.0762V14.9203H79.5001V13.0762H85.947ZM81.229 10.2484H83.5265V21.4134C83.5265 21.8591 83.5931 22.1946 83.7263 22.42C83.8595 22.6403 84.0311 22.7914 84.2412 22.8734C84.4563 22.9502 84.6894 22.9886 84.9404 22.9886C85.1248 22.9886 85.2862 22.9758 85.4245 22.9502C85.5628 22.9246 85.6704 22.9041 85.7472 22.8887L86.1622 24.7867C86.029 24.8379 85.8395 24.8892 85.5936 24.9404C85.3477 24.9967 85.0403 25.0275 84.6715 25.0326C84.067 25.0428 83.5035 24.9353 82.981 24.7099C82.4585 24.4845 82.0358 24.1361 81.7131 23.6648C81.3904 23.1935 81.229 22.6019 81.229 21.8898V10.2484ZM89.9408 29.3049C89.5976 29.3049 89.2851 29.2768 89.0034 29.2204C88.7216 29.1692 88.5116 29.1128 88.3733 29.0514L88.9265 27.1688C89.3466 27.2815 89.7206 27.3301 90.0484 27.3148C90.3763 27.2994 90.6657 27.1764 90.9167 26.9459C91.1728 26.7154 91.3982 26.3389 91.5929 25.8164L91.8772 25.0326L87.5588 13.0762H90.0177L93.0068 22.2356H93.1297L96.1188 13.0762H98.5854L93.7214 26.4541C93.496 27.0689 93.2091 27.5888 92.8608 28.014C92.5124 28.4443 92.0975 28.7671 91.616 28.9822C91.1344 29.1974 90.576 29.3049 89.9408 29.3049Z" fill="#1C3048"/>
<path d="M110.686 16.7579C110.856 16.8511 110.942 16.991 110.942 17.1774C110.926 17.1929 110.895 17.2628 110.849 17.3871C110.802 17.5114 110.717 17.7133 110.592 17.993C110.468 18.2571 110.282 18.6144 110.033 19.0649C109.8 19.5154 109.489 20.0747 109.101 20.7427C108.65 21.5195 108.254 22.1487 107.912 22.6302C107.571 23.0963 107.276 23.4536 107.027 23.7022C106.794 23.9507 106.584 24.1139 106.398 24.1915C106.227 24.2692 106.079 24.3081 105.955 24.3081C105.675 24.3081 105.442 24.1294 105.256 23.7721C105.07 23.3992 104.906 22.8788 104.767 22.2108C104.642 21.5428 104.526 20.7427 104.417 19.8106C104.308 18.863 104.192 17.8221 104.068 16.688C103.446 16.9055 102.91 17.0531 102.46 17.1308C102.025 17.1929 101.652 17.224 101.341 17.224C101.217 17.224 101.108 17.224 101.015 17.224C100.937 17.2085 100.859 17.1929 100.782 17.1774C100.362 18.6843 100.036 19.9038 99.8031 20.8359C99.5701 21.768 99.3836 22.4904 99.2438 23.0031C99.104 23.5158 98.9875 23.8653 98.8943 24.0517C98.8011 24.2226 98.6846 24.3081 98.5447 24.3081C98.4049 24.3081 98.2884 24.2614 98.1952 24.1682C98.102 24.0595 98.0554 23.943 98.0554 23.8187C98.0554 23.8032 98.0631 23.7954 98.0787 23.7954C98.0787 23.7799 98.0787 23.7566 98.0787 23.7255C98.0942 23.7099 98.1641 23.4769 98.2884 23.0264C98.3971 22.5759 98.5447 21.9855 98.7312 21.2554C98.9176 20.5097 99.1351 19.6708 99.3836 18.7387C99.6322 17.8066 99.8963 16.8511 100.176 15.8724C100.533 14.6141 100.852 13.4878 101.131 12.4935C101.411 11.4837 101.675 10.6293 101.924 9.93019C102.172 9.23111 102.405 8.69514 102.623 8.3223C102.84 7.94945 103.058 7.76303 103.275 7.76303C103.617 7.76303 103.912 7.98829 104.161 8.43881C104.409 8.8738 104.627 9.4486 104.813 10.1632C105.015 10.8778 105.178 11.7012 105.303 12.6333C105.442 13.5499 105.559 14.4898 105.652 15.453C105.745 16.4006 105.823 17.3405 105.885 18.2726C105.947 19.1892 106.002 20.0048 106.048 20.7194C106.11 21.434 106.165 22.0166 106.211 22.4671C106.274 22.9021 106.336 23.1196 106.398 23.1196C106.46 23.1196 106.592 22.9798 106.794 22.7002C106.996 22.405 107.229 22.0399 107.493 21.6049C107.757 21.1699 108.029 20.6961 108.309 20.1835C108.604 19.6708 108.876 19.1892 109.124 18.7387C109.373 18.2882 109.583 17.8998 109.753 17.5735C109.924 17.2473 110.025 17.0531 110.056 16.991C110.15 16.8201 110.297 16.7346 110.499 16.7346C110.577 16.7346 110.639 16.7424 110.686 16.7579ZM101.038 16.2686C101.069 16.2686 101.108 16.2763 101.155 16.2919C101.217 16.2919 101.279 16.2919 101.341 16.2919C101.605 16.2919 101.947 16.253 102.366 16.1754C102.801 16.0977 103.33 15.9501 103.951 15.7326C103.904 15.1112 103.85 14.482 103.788 13.8451C103.726 13.1926 103.656 12.579 103.578 12.0041C103.516 11.4293 103.446 10.9089 103.368 10.4429C103.306 9.96126 103.244 9.58842 103.182 9.32432C103.011 9.75931 102.731 10.5827 102.343 11.7944C101.955 13.0062 101.52 14.4976 101.038 16.2686ZM119.136 16.688C119.291 16.7812 119.369 16.9133 119.369 17.0842C119.369 17.1463 119.353 17.224 119.322 17.3172C119.229 17.4881 119.066 17.7833 118.833 18.2027C118.615 18.6066 118.351 19.0649 118.04 19.5776C117.745 20.0747 117.427 20.5951 117.085 21.1389C116.743 21.6826 116.401 22.1875 116.06 22.6536C115.718 23.1041 115.399 23.4769 115.104 23.7721C114.809 24.0517 114.56 24.1915 114.358 24.1915C114.125 24.1915 113.939 24.0362 113.799 23.7255C113.675 23.3992 113.574 22.9953 113.496 22.5137C113.419 22.0166 113.364 21.4729 113.333 20.8825C113.302 20.2767 113.279 19.6941 113.263 19.1348C113.248 18.56 113.24 18.0474 113.24 17.5968C113.24 17.1463 113.224 16.8123 113.193 16.5948C112.883 16.9055 112.525 17.1541 112.121 17.3405C111.733 17.5114 111.337 17.5968 110.933 17.5968C110.684 17.5968 110.413 17.5502 110.117 17.457C109.838 17.3638 109.581 17.224 109.348 17.0376C109.1 16.8356 108.898 16.587 108.742 16.2919C108.587 15.9967 108.509 15.6472 108.509 15.2432C108.509 14.9636 108.556 14.684 108.649 14.4043C108.742 14.1247 108.875 13.8761 109.045 13.6587C109.201 13.4256 109.395 13.247 109.628 13.1227C109.845 12.9829 110.094 12.913 110.374 12.913C110.824 12.913 111.135 13.0528 111.306 13.3324C111.492 13.612 111.585 13.9461 111.585 14.3344C111.585 14.7383 111.516 15.1578 111.376 15.5928C111.251 16.0278 111.104 16.3773 110.933 16.6414C111.104 16.6414 111.275 16.6259 111.446 16.5948C111.632 16.5482 111.811 16.4783 111.982 16.3851C112.168 16.2763 112.339 16.1288 112.494 15.9423C112.665 15.7559 112.82 15.5073 112.96 15.1966C113.162 14.7461 113.411 14.5209 113.706 14.5209C113.815 14.5209 113.931 14.5597 114.056 14.6374C114.195 14.715 114.32 14.8316 114.428 14.9869C114.537 15.1267 114.63 15.3054 114.708 15.5229C114.786 15.7404 114.825 15.9812 114.825 16.2453C114.825 16.6647 114.809 17.224 114.778 17.9231C114.747 18.6222 114.731 19.3523 114.731 20.1135C114.731 20.6107 114.739 21.0923 114.755 21.5583C114.77 22.0088 114.817 22.4283 114.894 22.8167C114.988 22.6769 115.135 22.4516 115.337 22.1409C115.555 21.8146 115.788 21.4418 116.036 21.0224C116.285 20.6029 116.549 20.1679 116.829 19.7174C117.108 19.2669 117.365 18.8397 117.598 18.4357C117.831 18.0318 118.025 17.69 118.18 17.4104C118.351 17.1308 118.46 16.9521 118.506 16.8744C118.584 16.7191 118.724 16.6414 118.926 16.6414C118.972 16.6414 119.042 16.657 119.136 16.688ZM110.56 13.8917C110.249 13.8917 110.016 14.016 109.861 14.2645C109.69 14.4976 109.605 14.7617 109.605 15.0568C109.605 15.2743 109.651 15.484 109.744 15.686C109.822 15.888 109.946 16.0511 110.117 16.1754C110.195 16.0977 110.319 15.888 110.49 15.5462C110.661 15.1889 110.747 14.7617 110.747 14.2645C110.747 14.1713 110.731 14.0936 110.7 14.0315C110.684 13.9538 110.638 13.9072 110.56 13.8917ZM123.99 16.688C124.161 16.7812 124.247 16.9133 124.247 17.0842C124.247 17.0686 124.231 17.1075 124.2 17.2007C124.169 17.2784 124.091 17.4492 123.967 17.7133C123.843 17.9774 123.648 18.3503 123.384 18.8319C123.12 19.2979 122.747 19.9116 122.266 20.6728C122.141 20.8592 121.963 21.1544 121.73 21.5583C121.497 21.9467 121.233 22.3428 120.938 22.7468C120.658 23.1351 120.355 23.4769 120.029 23.7721C119.702 24.0673 119.4 24.2148 119.12 24.2148C118.918 24.2148 118.755 24.1061 118.631 23.8886C118.506 23.6556 118.405 23.3526 118.328 22.9798C118.25 22.6069 118.196 22.172 118.164 21.6748C118.133 21.1622 118.118 20.6262 118.118 20.0669C118.118 19.3989 118.133 18.7231 118.164 18.0396C118.196 17.356 118.234 16.7113 118.281 16.1055C118.312 15.4996 118.343 14.9714 118.374 14.5209C118.421 14.0548 118.444 13.7208 118.444 13.5188C118.273 13.5188 118.032 13.5266 117.722 13.5421C117.395 13.5421 117.085 13.5344 116.79 13.5188C116.479 13.4878 116.215 13.4334 115.997 13.3557C115.764 13.278 115.648 13.146 115.648 12.9596C115.648 12.8197 115.702 12.711 115.811 12.6333C115.904 12.5401 116.013 12.4935 116.137 12.4935C116.588 12.4935 117.007 12.509 117.395 12.5401C117.768 12.5712 118.133 12.5867 118.491 12.5867C118.568 12.0119 118.607 11.4371 118.607 10.8623C118.623 10.2875 118.654 9.77484 118.7 9.32432C118.747 8.8738 118.848 8.50872 119.003 8.22909C119.159 7.94945 119.415 7.80963 119.772 7.80963C120.036 7.80963 120.223 7.88731 120.332 8.04266C120.44 8.18248 120.495 8.42328 120.495 8.76505C120.495 9.32432 120.471 9.93796 120.425 10.606C120.378 11.2585 120.355 11.8876 120.355 12.4935C120.945 12.4469 121.396 12.4003 121.706 12.3537C122.033 12.3071 122.266 12.2682 122.406 12.2372C122.545 12.2061 122.623 12.1828 122.639 12.1673C122.67 12.1362 122.693 12.1207 122.709 12.1207C122.833 12.1207 122.942 12.1673 123.035 12.2605C123.144 12.3537 123.198 12.4624 123.198 12.5867C123.198 12.7887 123.089 12.913 122.872 12.9596C122.841 12.9751 122.608 13.045 122.173 13.1693C121.753 13.278 121.132 13.3712 120.308 13.4489C120.277 14.2723 120.223 15.1112 120.145 15.9656C120.068 16.8045 119.99 17.6201 119.912 18.4124C119.85 19.1892 119.788 19.9194 119.726 20.6029C119.679 21.2865 119.656 21.8768 119.656 22.3739C119.656 22.4671 119.656 22.5603 119.656 22.6536C119.656 22.7312 119.664 22.8089 119.679 22.8866C119.803 22.7312 119.974 22.4904 120.192 22.1642C120.425 21.8224 120.673 21.4418 120.938 21.0224C121.202 20.5874 121.466 20.1446 121.73 19.6941C122.009 19.2436 122.258 18.8241 122.475 18.4357C122.709 18.0318 122.903 17.69 123.058 17.4104C123.229 17.1308 123.33 16.9521 123.361 16.8744C123.439 16.7191 123.571 16.6414 123.757 16.6414C123.819 16.6414 123.897 16.657 123.99 16.688Z" fill="#1C3048"/>
<defs>
<filter id="filter0_i_0_849" x="0.5" y="0.390625" width="33.3282" height="33.8645" filterUnits="userSpaceOnUse" color-interpolation-filters="sRGB">
<feFlood flood-opacity="0" result="BackgroundImageFix"/>
<feBlend mode="normal" in="SourceGraphic" in2="BackgroundImageFix" result="shape"/>
<feColorMatrix in="SourceAlpha" type="matrix" values="0 0 0 0 0 0 0 0 0 0 0 0 0 0 0 0 0 0 127 0" result="hardAlpha"/>
<feOffset dy="0.665796"/>
<feGaussianBlur stdDeviation="0.74902"/>
<feComposite in2="hardAlpha" operator="arithmetic" k2="-1" k3="1"/>
<feColorMatrix type="matrix" values="0 0 0 0 0 0 0 0 0 0 0 0 0 0 0 0 0 0 0.25 0"/>
<feBlend mode="normal" in2="shape" result="effect1_innerShadow_0_849"/>
</filter>
<linearGradient id="paint0_linear_0_849" x1="34.0557" y1="0.39063" x2="-0.605154" y2="1.58761" gradientUnits="userSpaceOnUse">
<stop stop-color="#5961F8"/>
<stop offset="1" stop-color="#15D8C5"/>
<stop offset="1" stop-color="#15D8C5"/>
</linearGradient>
</defs>
</svg>
